<svg width="260" height="280" xmlns="http://www.w3.org/2000/svg" xmlns:svg="http://www.w3.org/2000/svg" preserveAspectRatio="xMidYMid meet">
  <g>
    <path d="m111,229l-9.5,-40.5l-27,-52.5l8.5,-41l25.5,-18l21.5,-5.5l28,7l19,17l9.5,41.5l-26.5,51l-9.5,42.5l-39.5,-1.5z" fill="url(#radialGradient)" />
    <g transform="translate(0,300) scale(0.05000000074505806,-0.05000000074505806)" fill="#292929">
      <path d="m2562,5827l-48,-33l14,-355c17,-426 26,-467 98,-475c78,-10 89,37 106,454c17,436 -17,517 -170,409z" fill="#ffab00" />
      <path d="m4162,5125c-78,-74 -413,-453 -452,-512c-55,-84 15,-160 98,-106c54,35 491,423 537,477c114,131 -55,261 -183,141z" fill="#ffab00" />
      <path d="m884,5136c-88,-88 423,-646 592,-646c123,0 84,80 -188,385c-264,297 -327,338 -404,261z" fill="#ffab00" />
      <path d="m2323,4682c-719,-183 -1123,-887 -933,-1624c47,-179 121,-333 295,-610c269,-430 344,-623 368,-948c19,-255 -17,-240 567,-240c584,0 548,-15 567,240c24,325 104,533 366,946c271,429 335,614 335,984c1,843 -765,1456 -1565,1252zm625,-265c565,-187 846,-839 615,-1428c-34,-88 -136,-277 -226,-420c-257,-408 -336,-595 -385,-909l-24,-150l-308,0l-308,0l-24,150c-48,310 -132,509 -367,878c-253,395 -321,585 -321,893c0,715 675,1208 1348,986z" />
      <path d="m2148,3641c-227,-96 -132,-445 148,-542c56,-20 63,-32 72,-126c13,-119 72,-1131 72,-1228c0,-56 7,-65 50,-65c29,0 50,11 50,28c0,48 -59,1035 -70,1187l-12,145l162,0l162,0l-12,-145c-14,-185 -70,-1119 -70,-1174c0,-30 13,-41 50,-41c43,0 50,9 50,65c0,97 59,1109 72,1229c10,95 16,105 75,125c319,105 372,551 65,551c-168,0 -217,-102 -231,-475c-1,-30 -22,-35 -161,-35c-139,0 -160,5 -161,35c-15,399 -115,550 -311,466zm157,-116c31,-35 73,-345 46,-345c-87,0 -231,156 -231,250c0,116 114,174 185,95zm784,4c77,-78 7,-249 -130,-320c-83,-43 -84,-42 -68,126c18,207 102,289 198,194z" />
      <path d="m213,3483c-68,-74 -23,-184 78,-190c128,-7 720,32 754,49c43,23 46,84 6,118c-29,23 -420,57 -683,59c-93,1 -130,-8 -155,-36z" fill="#ffab00" />
      <path d="m4446,3500c-230,-14 -286,-34 -286,-102c0,-61 56,-74 400,-91c470,-24 500,-18 500,104c0,111 -77,122 -614,89z" fill="#ffab00" />
      <path d="m1209,2129c-372,-329 -382,-344 -313,-429c61,-75 140,-60 233,46c424,478 436,493 423,544c-24,94 -90,63 -343,-161z" fill="#ffab00" />
      <path d="m3688,2290c-13,-51 -1,-66 423,-544c93,-106 172,-121 233,-46c69,85 59,100 -313,429c-253,224 -319,255 -343,161z" fill="#ffab00" />
      <path d="m2093,1063c-38,-42 -42,-89 -11,-146c16,-30 16,-47 0,-63c-69,-69 14,-194 128,-194c66,0 70,-3 70,-69c0,-113 47,-131 340,-131c293,0 340,18 340,131c0,66 4,69 70,69c98,0 158,63 142,147c-16,81 -16,92 0,159c9,39 3,67 -23,95c-53,58 -1003,61 -1056,2z" />
    </g>
  </g>
  <defs>
    <radialGradient r="0.5" cy="0.2" cx="0.5" spreadMethod="pad" id="radialGradient">
      <stop offset="0" stop-color="#ffffaa"/>
      <stop offset="1" stop-opacity="1" stop-color="#ffab00" />
    </radialGradient>
  </defs>
</svg>